Documentary covering the famous 'demonic possession' case of Anneliese Michel. The film features authentic footage of 'exorcisms' and other shocking events.

They speak german in certain parts of the movie. I haven't found any subtitles for it yet. If you can find any that fits this release please make a comment. Thanks. 
 
http://en.wikipedia.org/wiki/Anneliese:_The_Exorcist_Tapes

General
Complete name                    : Anneliese.The.Exorcist.Tapes.[2011].DvdRip.XviD-Knã\Anneliese.The.Exorcist.Tapes.[2011].DvdRip.XviD-Knã.avi
Format                           : AVI
Format/Info                      : Audio Video Interleave
File size                        : 1.09 GiB
Duration                         : 1h 27mn
Overall bit rate                 : 1 781 Kbps
Writing application              : VirtualDubMod 1.5.4.1 (build 2178/release)
Writing library                  : VirtualDubMod build 2178/release

Video
ID                               : 0
Format                           : MPEG-4 Visual
Format profile                   : Advanced Simple@L5
Format settings, BVOP            : 1
Format settings, QPel            : No
Format settings, GMC             : No warppoints
Format settings, Matrix          : Custom
Codec ID                         : XVID
Codec ID/Hint                    : XviD
Duration                         : 1h 27mn
Bit rate                         : 1 550 Kbps
Width                            : 720 pixels
Height                           : 528 pixels
Display aspect ratio             : 4:3
Frame rate                       : 25.000 fps
Color space                      : YUV
Chroma subsampling               : 4:2:0
Bit depth                        : 8 bits
Scan type                        : Progressive
Compression mode                 : Lossy
Bits/(Pixel*Frame)               : 0.163
Stream size                      : 975 MiB (87%)
Writing library                  : XviD 1.2.1 (UTC 2008-12-04)

Audio
ID                               : 1
Format                           : AC-3
Format/Info                      : Audio Coding 3
Mode extension                   : CM (complete main)
Codec ID                         : 2000
Duration                         : 1h 27mn
Bit rate mode                    : Constant
Bit rate                         : 224 Kbps
Channel(s)                       : 2 channels
Channel positions                : Front: L R
Sampling rate                    : 48.0 KHz
Bit depth                        : 16 bits
Compression mode                 : Lossy
Stream size                      : 141 MiB (13%)
Alignment                        : Split accross interleaves
Interleave, duration             : 96 ms (2.40 video frames)
Interleave, preload duration     : 96 ms
Language                         : English

